<svg id="OBJECTS" xmlns="http://www.w3.org/2000/svg" xmlns:xlink="http://www.w3.org/1999/xlink" viewBox="0 0 420.04 388.46"><defs><clipPath id="clip-path" transform="translate(-39.98 -46.77)"><path d="M373.5,279.79l-2.33-2.37a.74.74,0,0,0-1-.11c-17.8,13.8-28.76,35.42-35.84,56.37a.72.72,0,0,0,.24.84c2.68,1.66,5.53,2.44,8.48,1.19a.58.58,0,0,0,.48-.42v0a224.24,224.24,0,0,1,8.24-21.19c5.21-11.81,11.47-24.89,21.62-33.27A.7.7,0,0,0,373.5,279.79Z" fill="none"/></clipPath><clipPath id="clip-path-2" transform="translate(-39.98 -46.77)"><path d="M313.45,266c8.51,12.64,11.16,29.21,13.05,44a262,262,0,0,1,2.17,26.23v0a.69.69,0,0,0,.39.64c2.86,2.35,6.29,2.42,9.81,1.46a.84.84,0,0,0,.54-.86c-1-25.58-6-53.17-21.23-74.35a.84.84,0,0,0-1.15-.21l-3.38,1.86A.83.83,0,0,0,313.45,266Z" fill="none"/></clipPath></defs><title>404page</title><path d="M247.94,72.63a.78.78,0,0,0,.8-.71.75.75,0,0,0-.43-.88.6.6,0,0,0-.19-.06c-2.6-.63-4.66-3.78-7.36-3.82-2.32,0-4-.43-5.15-2.65a11,11,0,0,0-1.76-2.65,5.5,5.5,0,0,0-5.07-1.37c-1.33.2-2.59.16-3.92.24-.74,0-2.28-3.14-2.62-3.69-2.85-4.61-5.58-9.55-11.57-10.18a16.39,16.39,0,0,0-13.51,5.08c-2.62-2.45-4.82-5.06-8.83-3.12a9.32,9.32,0,0,0-4.61,4.71,12.44,12.44,0,0,1-2.07,3.37c-1.28,1.36-3.83.57-5.42.55-2.08,0-3.45,1.66-4.62,3.13-1.45,1.8-2.78,1.93-4.9,1.26a3.72,3.72,0,0,0-2.42.11c-3.84,2.07-4.75,8.59-9.76,9a.84.84,0,0,0,0,1.67h93.41Z" transform="translate(-39.98 -46.77)" fill="#e6f5f6"/><path d="M325.55,105.11h59.58a.52.52,0,1,0,0-1c-3.21-.26-3.8-4.28-6.26-5.55a2.45,2.45,0,0,0-1.56-.07c-1.36.41-2.21.33-3.14-.78-.76-.9-1.63-1.94-3-1.93-1,0-2.66.5-3.48-.34a7.7,7.7,0,0,1-1.33-2.07,5.81,5.81,0,0,0-3-2.9c-2.57-1.21-4,.41-5.67,1.91a10.78,10.78,0,0,0-8.67-3.13c-3.85.39-5.6,3.44-7.43,6.28-.22.34-1.21,2.3-1.68,2.27-.86,0-1.67,0-2.52-.14a3.58,3.58,0,0,0-3.25.84,6.27,6.27,0,0,0-1.13,1.63c-.72,1.37-1.83,1.62-3.31,1.64-1.74,0-3.06,2-4.73,2.35l-.12,0a.45.45,0,0,0-.28.54.49.49,0,0,0,.51.44Z" transform="translate(-39.98 -46.77)" fill="#e6f5f6"/><path d="M135.09,243.15H135a21.49,21.49,0,0,1-5.52-1.44c-1.52-.66-2.45-2.12-4-2.78-1.1-.48-2.56-.12-3.22-1.23-.81-1.38-1.06-3-1.81-4.46-1.3-2.47-4.14-3.14-6.68-2.77-3,.45-4.83,2.92-6.61,5.17-1.18-1.91-2.89-3.31-5.34-2.86-3.11.57-4,2.88-5.17,5.39-3.09-2.23-7.06-1.65-8.06,2.37-2.17-.13-5.1.71-5.24,3.17a.57.57,0,0,0,.56.56h51a.53.53,0,0,0,.54-.51A.46.46,0,0,0,135.09,243.15Z" transform="translate(-39.98 -46.77)" fill="#e6f5f6"/><path d="M351.6,192.13a.82.82,0,0,0,.85.8H433a.89.89,0,0,0,.89-.89c-.23-3.88-4.86-5.21-8.28-5-1.58-6.36-7.84-7.28-12.73-3.75-1.9-4-3.25-7.61-8.16-8.51-3.87-.72-6.57,1.5-8.44,4.51-2.81-3.56-5.61-7.45-10.44-8.16-4-.58-8.49.47-10.54,4.37-1.18,2.24-1.59,4.87-2.87,7.05-1,1.76-3.34,1.18-5.07,1.93-2.43,1-3.9,3.35-6.3,4.4a34.17,34.17,0,0,1-8.72,2.27.66.66,0,0,0-.15,0A.71.71,0,0,0,351.6,192.13Z" transform="translate(-39.98 -46.77)" fill="#e6f5f6"/><text transform="translate(51.37 171.4)" font-size="13.04" fill="#c2c2c2" font-family="Rubik-Medium, Rubik Medium" font-weight="500" letter-spacing="0.09em">T<tspan x="7.69" y="0" letter-spacing="0.1em">his page is no longer </tspan><tspan x="151.36" y="0" letter-spacing="0.09em">a</tspan><tspan x="158.85" y="0" letter-spacing="0.1em">v</tspan><tspan x="166.37" y="0" letter-spacing="0.1em">ailable</tspan></text><text transform="translate(72.61 133.54)" font-size="105.39" fill="#c2c2c2" font-family="Rubik-Medium, Rubik Medium" font-weight="500" letter-spacing="0.03em">404</text><path d="M460,328c0,29.33-41,22.23-43.18,42.38-2,18.73,26.38,17.83,30.4,31.25,7.45,24.88-37.9,31.14-50.64,32.14a512,512,0,0,1-87.72-.89c-8.07-.58-34.34-.06-35.36-8.68-1.25-10.42,14.31-7,14.81-13.89.62-8.68-25.32-8.69-39.08-8-26,1.32-42.12-.11-66.94,1.63-13,.57-54.6,2.31-54-16.21.19-5.81,10.42-8.39,11.17-12.73,1.76-10.22-30.4-9.83-38.47-9.26-21.1,1.16-58.47-2.17-60.8-18.51-3.52-24.63,31.64-27,43.43-27.62,26.67,0,52.11,0,79.41-2.31,6.09-.52,12.41-.16,11.17-7.11-1.24-4.62-9.93-6.36-10.54-11-2.49-19.09,65.53-21.94,101.13-18.66,38.11,3.5,59.36,5.35,43.85,21C295.94,314.34,460,294.57,460,328Z" transform="translate(-39.98 -46.77)" fill="#daf1e8"/><path d="M381.43,354.44c-3.25-20.26-24.75-38.84-45.25-39-21.14-.2-40.53,18.86-46.55,38a3.53,3.53,0,0,0,1.64,4c14.34,7.21,30.59,9.45,46.51,9.36,14-.08,29.81-.62,42-8.29a3.35,3.35,0,0,0,1.66-3A3.54,3.54,0,0,0,381.43,354.44Z" transform="translate(-39.98 -46.77)" fill="#e9a83f"/><path d="M312.13,336.72a1.22,1.22,0,0,1-1.12,1.12,1.13,1.13,0,1,1,0-2.24A1.22,1.22,0,0,1,312.13,336.72Z" transform="translate(-39.98 -46.77)" fill="#b77a49"/><path d="M319.36,337.84a1.22,1.22,0,0,1-1.12,1.12,1.13,1.13,0,1,1,0-2.24A1.22,1.22,0,0,1,319.36,337.84Z" transform="translate(-39.98 -46.77)" fill="#b77a49"/><path d="M371.84,352.45a1.22,1.22,0,0,1-1.12,1.12,1.13,1.13,0,1,1,0-2.24A1.22,1.22,0,0,1,371.84,352.45Z" transform="translate(-39.98 -46.77)" fill="#b77a49"/><path d="M369.48,334.12a1.23,1.23,0,0,1-1.13,1.12,1.13,1.13,0,1,1,0-2.24A1.23,1.23,0,0,1,369.48,334.12Z" transform="translate(-39.98 -46.77)" fill="#b77a49"/><path d="M296.67,353.28a1.22,1.22,0,0,1-1.12,1.12,1.13,1.13,0,1,1,0-2.25A1.22,1.22,0,0,1,296.67,353.28Z" transform="translate(-39.98 -46.77)" fill="#b77a49"/><path d="M359.53,359.77a1.23,1.23,0,0,1-1.13,1.13,1.13,1.13,0,1,1,0-2.25A1.23,1.23,0,0,1,359.53,359.77Z" transform="translate(-39.98 -46.77)" fill="#b77a49"/><path d="M320,354.7a1.22,1.22,0,0,1-1.12,1.12,1.13,1.13,0,1,1,0-2.25A1.23,1.23,0,0,1,320,354.7Z" transform="translate(-39.98 -46.77)" fill="#b77a49"/><path d="M322.21,330.87a.62.62,0,0,1-.57.56.68.68,0,0,1-.62-.56.67.67,0,0,1,.62-.56A.61.61,0,0,1,322.21,330.87Z" transform="translate(-39.98 -46.77)" fill="#b77a49"/><path d="M315.33,333.56a.61.61,0,0,1-.56.56.67.67,0,0,1-.62-.56.66.66,0,0,1,.62-.56A.6.6,0,0,1,315.33,333.56Z" transform="translate(-39.98 -46.77)" fill="#b77a49"/><path d="M358.93,333a.61.61,0,0,1-.56.56.68.68,0,0,1-.62-.56.67.67,0,0,1,.62-.56A.6.6,0,0,1,358.93,333Z" transform="translate(-39.98 -46.77)" fill="#b77a49"/><path d="M335.49,354.13a.62.62,0,0,1-.56.57.57.57,0,1,1,0-1.13A.62.62,0,0,1,335.49,354.13Z" transform="translate(-39.98 -46.77)" fill="#b77a49"/><path d="M306.3,351.33a.62.62,0,0,1-.56.56.68.68,0,0,1-.63-.56.67.67,0,0,1,.63-.56A.61.61,0,0,1,306.3,351.33Z" transform="translate(-39.98 -46.77)" fill="#b77a49"/><path d="M355.73,324.94a.6.6,0,0,1-.56.56.66.66,0,0,1-.62-.56.67.67,0,0,1,.62-.56A.61.61,0,0,1,355.73,324.94Z" transform="translate(-39.98 -46.77)" fill="#b77a49"/><path d="M328.33,364.13a.61.61,0,0,1-.56.56.57.57,0,1,1,0-1.13A.61.61,0,0,1,328.33,364.13Z" transform="translate(-39.98 -46.77)" fill="#b77a49"/><path d="M303.46,351.89a.62.62,0,0,1-.56.56.68.68,0,0,1-.63-.56.67.67,0,0,1,.63-.56A.61.61,0,0,1,303.46,351.89Z" transform="translate(-39.98 -46.77)" fill="#b77a49"/><path d="M363.08,343.49a.62.62,0,0,1-.57.56.57.57,0,1,1,0-1.13A.62.62,0,0,1,363.08,343.49Z" transform="translate(-39.98 -46.77)" fill="#b77a49"/><path d="M343.74,344.05a.62.62,0,0,1-.57.56.68.68,0,0,1-.62-.56.67.67,0,0,1,.62-.56A.61.61,0,0,1,343.74,344.05Z" transform="translate(-39.98 -46.77)" fill="#b77a49"/><path d="M331.8,341.09a.61.61,0,0,1-.56.56.57.57,0,1,1,0-1.13A.61.61,0,0,1,331.8,341.09Z" transform="translate(-39.98 -46.77)" fill="#b77a49"/><path d="M340.18,353.57a.61.61,0,0,1-.56.56.66.66,0,0,1-.62-.56.67.67,0,0,1,.62-.56A.62.62,0,0,1,340.18,353.57Z" transform="translate(-39.98 -46.77)" fill="#b77a49"/><path d="M336.08,321.15a.61.61,0,0,1-.56.56.56.56,0,1,1,0-1.12A.61.61,0,0,1,336.08,321.15Z" transform="translate(-39.98 -46.77)" fill="#b77a49"/><path d="M320.54,322.28a.61.61,0,0,1-.56.56.57.57,0,1,1,0-1.13A.61.61,0,0,1,320.54,322.28Z" transform="translate(-39.98 -46.77)" fill="#b77a49"/><path d="M373.5,279.79l-2.33-2.37a.74.74,0,0,0-1-.11c-17.8,13.8-28.76,35.42-35.84,56.37a.72.72,0,0,0,.24.84c2.68,1.66,5.53,2.44,8.48,1.19a.58.58,0,0,0,.48-.42v0a224.24,224.24,0,0,1,8.24-21.19c5.21-11.81,11.47-24.89,21.62-33.27A.7.7,0,0,0,373.5,279.79Z" transform="translate(-39.98 -46.77)" fill="#865936"/><g clip-path="url(#clip-path)"><path d="M335.13,323.52a125,125,0,0,0,8.38,13.31c.21.3.66-.06.44-.36a123.22,123.22,0,0,1-8.29-13.19c-.18-.32-.7-.09-.53.24Z" transform="translate(-39.98 -46.77)" fill="#946641"/><path d="M337.8,318.62c2.39,5.9,6.49,10.78,9.79,16.16.19.32.63,0,.44-.35-3.26-5.35-7.34-10.19-9.71-16.05-.14-.34-.66-.11-.52.24Z" transform="translate(-39.98 -46.77)" fill="#946641"/><path d="M340.42,312.81c2.76,4.18,4.92,8.7,7.34,13.08.18.32.71.09.53-.23-2.44-4.42-4.63-9-7.43-13.21-.2-.31-.65.05-.44.36Z" transform="translate(-39.98 -46.77)" fill="#946641"/><path d="M344.41,308.06c2.76,3.94,5,8.18,7.43,12.32.19.31.72.09.53-.23-2.45-4.19-4.73-8.47-7.51-12.45-.21-.3-.66.06-.45.36Z" transform="translate(-39.98 -46.77)" fill="#946641"/><path d="M348.18,298a112.6,112.6,0,0,0,6.67,14.41c.17.32.7.09.52-.23a114.05,114.05,0,0,1-6.66-14.42c-.13-.34-.65-.11-.53.24Z" transform="translate(-39.98 -46.77)" fill="#946641"/><path d="M353.28,290.32a121.74,121.74,0,0,0,6.41,15c.16.34.69.1.53-.23a120.86,120.86,0,0,1-6.41-15c-.12-.36-.64-.12-.53.23Z" transform="translate(-39.98 -46.77)" fill="#946641"/><path d="M358,286a105.06,105.06,0,0,0,4.18,12.6.29.29,0,0,0,.52-.24,104.27,104.27,0,0,1-4.17-12.59c-.11-.35-.63-.12-.53.23Z" transform="translate(-39.98 -46.77)" fill="#946641"/><path d="M361.82,281.07c1.29,3.78,2.44,7.61,3.73,11.39.12.35.64.12.53-.23-1.29-3.78-2.45-7.61-3.74-11.39-.11-.35-.64-.12-.52.23Z" transform="translate(-39.98 -46.77)" fill="#946641"/><path d="M366.7,277c1,3.05,2.06,6.11,3,9.19.11.35.63.12.52-.23-1-3.08-2-6.14-3-9.19-.12-.36-.64-.12-.53.23Z" transform="translate(-39.98 -46.77)" fill="#946641"/><path d="M330.57,332.76c6.61-.75,12.91-2.88,19.36-4.38.36-.08.27-.65-.09-.57-6.45,1.5-12.76,3.63-19.36,4.39-.36,0-.27.61.09.56Z" transform="translate(-39.98 -46.77)" fill="#946641"/><path d="M330.3,326.58c7.5-1.74,14.72-4.38,22-6.81.35-.12.11-.64-.24-.53-7.24,2.42-14.41,5-21.86,6.77-.35.08-.27.65.09.57Z" transform="translate(-39.98 -46.77)" fill="#946641"/><path d="M333.38,319c7.56.22,14.44-2.68,21.59-4.72.35-.11.26-.67-.09-.57-7.09,2-13.94,4.94-21.44,4.72-.36,0-.43.56-.06.57Z" transform="translate(-39.98 -46.77)" fill="#946641"/><path d="M337.41,312.93c7.18-1.38,14.24-3.21,21.34-4.93.36-.08.27-.65-.09-.56-7.1,1.71-14.17,3.54-21.34,4.93a.28.28,0,0,0,.09.56Z" transform="translate(-39.98 -46.77)" fill="#946641"/><path d="M340,307.44c7.92-2.18,15.85-4.36,23.81-6.38.36-.1.27-.66-.09-.57-8,2-15.89,4.2-23.81,6.39-.35.09-.27.66.09.56Z" transform="translate(-39.98 -46.77)" fill="#946641"/><path d="M344.84,299.9c6.17-1.08,12.32-2.32,18.48-3.52a.28.28,0,0,0-.09-.56c-6.16,1.2-12.31,2.43-18.49,3.52a.28.28,0,0,0,.1.56Z" transform="translate(-39.98 -46.77)" fill="#946641"/><path d="M349.21,293.46c6.07-1.34,12.28-1.75,18.4-2.75a.29.29,0,0,0-.09-.57c-6.12,1-12.33,1.41-18.4,2.76-.36.07-.27.64.09.56Z" transform="translate(-39.98 -46.77)" fill="#946641"/><path d="M354.71,286.58c5.52,0,11-.47,16.52-.67.37,0,.27-.58-.09-.56-5.46.19-10.9.66-16.36.66-.36,0-.43.57-.07.57Z" transform="translate(-39.98 -46.77)" fill="#946641"/><path d="M357.91,282.13c5.62,1.11,11.33.91,17,.94.36,0,.43-.57.06-.58-5.7,0-11.4.18-17-.94-.36-.07-.42.5-.06.58Z" transform="translate(-39.98 -46.77)" fill="#946641"/></g><path d="M379.83,282.33a4.49,4.49,0,0,1-4.56,3.64c-2-.22-4.31-2.59-4.09-4.6s3-3.82,5-3.6A4.5,4.5,0,0,1,379.83,282.33Z" transform="translate(-39.98 -46.77)" fill="#6b4c34"/><path d="M367.73,281.7a4.49,4.49,0,0,1-4.56,3.64c-2-.22-4.32-2.59-4.09-4.61s3-3.81,5-3.59A4.5,4.5,0,0,1,367.73,281.7Z" transform="translate(-39.98 -46.77)" fill="#6b4c34"/><path d="M398,275.75a10.07,10.07,0,0,1,.82,5.34,64.88,64.88,0,0,1,10.89,4.78,11,11,0,0,0,1-3.79,16.36,16.36,0,0,1,1.45,5.25,34.06,34.06,0,0,1,8.54,7.27c1.75-8.78.5-17.32-5.12-22.92A13.1,13.1,0,0,0,412,274a8.55,8.55,0,0,1,2-3.63c-3.58-2.87-8.6-4.73-15.29-5.09a23.24,23.24,0,0,0-3.63,4.7,20.57,20.57,0,0,1,.29-4.71c-10.71.76-23.25,9.07-26.54,17.43,5.59-5.63,16.75-5.46,27.53-2.32A11.56,11.56,0,0,0,398,275.75Z" transform="translate(-39.98 -46.77)" fill="#7a8a44"/><path d="M393.34,271a25.55,25.55,0,0,0-8.9,1.24,32.55,32.55,0,0,0-7.17,3.3,34.46,34.46,0,0,0-8.4,7.16,46.14,46.14,0,0,1,8.81-6.44,30,30,0,0,1,15.61-4.11,28.12,28.12,0,0,1,15.13,5.51,63.42,63.42,0,0,1,8.2,7.24,41.84,41.84,0,0,0-7.71-7.9A27.29,27.29,0,0,0,393.34,271Z" transform="translate(-39.98 -46.77)" fill="#6c793c"/><path d="M400.66,263.43a9.78,9.78,0,0,1,3,4.78,93.78,93.78,0,0,1,14.19,1,9.29,9.29,0,0,0-.35-3.91,17.07,17.07,0,0,1,3.71,4.48,45.69,45.69,0,0,1,12.51,4.08c-1.48-8.87-6.27-16.53-14.82-20a13.24,13.24,0,0,0-3.1,3.32,7.21,7.21,0,0,1,.87-4.09c-5.19-1.54-11.59-1.65-19.3.19a20.62,20.62,0,0,0-2.24,5.63,18.2,18.2,0,0,1-1.53-4.55c-11.8,4.23-22.7,16.18-23.11,25.17,4.1-7.15,16.77-10.65,30.19-11.21A9.77,9.77,0,0,0,400.66,263.43Z" transform="translate(-39.98 -46.77)" fill="#7a8a44"/><path d="M393.55,260.43a33.14,33.14,0,0,0-9.57,4.08,36.16,36.16,0,0,0-6.8,5.47,33.21,33.21,0,0,0-6.66,9.52,47.21,47.21,0,0,1,7.41-9,36.64,36.64,0,0,1,16-9,40,40,0,0,1,19.26.26,81.76,81.76,0,0,1,12.12,4.15A54.09,54.09,0,0,0,413.5,261,38.62,38.62,0,0,0,393.55,260.43Z" transform="translate(-39.98 -46.77)" fill="#6c793c"/><path d="M393.47,296.22a8,8,0,0,1-1.93,4.23,78,78,0,0,1,5.73,10.41,7.5,7.5,0,0,0,2.54-2,13.91,13.91,0,0,1-1.42,4.59,38.73,38.73,0,0,1,2.83,10.6c5.43-4.95,8.55-11.69,7.07-19.23a11.17,11.17,0,0,0-3.68-.72,5.85,5.85,0,0,1,3.21-1.19c-1.28-4.33-4.08-8.89-8.82-13.5a16.71,16.71,0,0,0-4.88.9,14.66,14.66,0,0,1,2.44-3.08c-8.22-6.45-21.34-8.86-27.7-5.2,6.76-.26,14.87,7.12,21.29,16.33A7.94,7.94,0,0,0,393.47,296.22Z" transform="translate(-39.98 -46.77)" fill="#7a8a44"/><path d="M392.33,289.89a27.93,27.93,0,0,0-7.11-4.94,30,30,0,0,0-6.82-2.39,27.19,27.19,0,0,0-9.54-.5,38.5,38.5,0,0,1,9.51,1.27,30.77,30.77,0,0,1,13.38,7.32,34.11,34.11,0,0,1,8.49,13.68,70.07,70.07,0,0,1,2.6,10.36,45.9,45.9,0,0,0-1.92-10.51A33.11,33.11,0,0,0,392.33,289.89Z" transform="translate(-39.98 -46.77)" fill="#6c793c"/><path d="M342.57,275.74a8,8,0,0,0-1.65,4.35,79.16,79.16,0,0,0-11.42,3.27,7.57,7.57,0,0,1-.39-3.19,14.1,14.1,0,0,0-2.25,4.24,38.38,38.38,0,0,0-9.51,5.47c-.32-7.34,2.25-14.3,8.65-18.57a11.06,11.06,0,0,1,3.1,2.1,5.72,5.72,0,0,0-1.41-3.11c4-2.14,9.18-3.37,15.78-3.26a16.54,16.54,0,0,1,2.81,4.09,14.45,14.45,0,0,0,.46-3.9c10.37,1.29,21.34,8.89,23.22,16-4.58-5-15.53-5.53-26.59-3.6A7.87,7.87,0,0,1,342.57,275.74Z" transform="translate(-39.98 -46.77)" fill="#7a8a44"/><path d="M347.86,272.08a27.82,27.82,0,0,1,8.52,1.57,30.5,30.5,0,0,1,6.5,3.15,27.21,27.21,0,0,1,7.08,6.42,38.74,38.74,0,0,0-7.6-5.85A30.64,30.64,0,0,0,347.72,273,34.11,34.11,0,0,0,332,276.65a69.55,69.55,0,0,0-9.18,5.46,45.61,45.61,0,0,1,8.81-6A33.19,33.19,0,0,1,347.86,272.08Z" transform="translate(-39.98 -46.77)" fill="#6c793c"/><path d="M348.16,263a10.18,10.18,0,0,0-3.33,4.26A64.43,64.43,0,0,0,333,266.07a11.22,11.22,0,0,1,1-3.8,16.43,16.43,0,0,0-3.83,3.87,34,34,0,0,0-11,2.15c2.78-8.5,8.05-15.34,15.69-17.47a13,13,0,0,1,2,3.72,8.45,8.45,0,0,0,0-4.15c4.54-.74,9.82.09,15.84,3.05a23.16,23.16,0,0,1,.85,5.88,20.63,20.63,0,0,0,2.06-4.25c9,5.91,15.83,19.29,14.59,28.2-2.11-7.65-11.92-13-22.86-15.51A11.79,11.79,0,0,1,348.16,263Z" transform="translate(-39.98 -46.77)" fill="#7a8a44"/><path d="M354.54,261.08a25.42,25.42,0,0,1,7.15,5.44,32.44,32.44,0,0,1,4.63,6.39,34.22,34.22,0,0,1,3.81,10.36,46.66,46.66,0,0,0-4.52-9.94A29.91,29.91,0,0,0,354,262.1a28.16,28.16,0,0,0-15.88-2.6,62.15,62.15,0,0,0-10.7,2.29,41.86,41.86,0,0,1,10.6-3.11A27.3,27.3,0,0,1,354.54,261.08Z" transform="translate(-39.98 -46.77)" fill="#6c793c"/><path d="M365.36,253.14a7.73,7.73,0,0,0-4.58-.11,78.47,78.47,0,0,0-7-9.62,7.07,7.07,0,0,1,2.8-1.42,13.84,13.84,0,0,0-4.68-.71,39.6,39.6,0,0,0-8.33-7.11c6.65-2.72,14-2.61,20.11,2a10.79,10.79,0,0,1-.87,3.6,5.45,5.45,0,0,0,2.38-2.35c3.35,3,6.28,7.49,8.48,13.72a16.52,16.52,0,0,1-2.81,4,13.93,13.93,0,0,0,3.75-.86c2.41,10.14-.8,22.93-6.69,27,3-5.93-.28-16.38-5.89-26.1A7.51,7.51,0,0,1,365.36,253.14Z" transform="translate(-39.98 -46.77)" fill="#7a8a44"/><path d="M370.56,256.89a28.15,28.15,0,0,1,1.51,8.49,30.07,30.07,0,0,1-.66,7.14,26.52,26.52,0,0,1-3.46,8.75,37.88,37.88,0,0,0,2.76-9.06,30.9,30.9,0,0,0-1.07-15.14,34.88,34.88,0,0,0-8.76-13.5,71.27,71.27,0,0,0-8.21-6.8,46.34,46.34,0,0,1,8.61,6.26A33.71,33.71,0,0,1,370.56,256.89Z" transform="translate(-39.98 -46.77)" fill="#6c793c"/><path d="M374.08,284.25a4.5,4.5,0,0,1-4.56,3.65c-2-.23-4.31-2.6-4.09-4.61s3-3.82,5-3.6A4.49,4.49,0,0,1,374.08,284.25Z" transform="translate(-39.98 -46.77)" fill="#86593d"/><path d="M313.45,266c8.51,12.64,11.16,29.21,13.05,44a262,262,0,0,1,2.17,26.23v0a.69.69,0,0,0,.39.64c2.86,2.35,6.29,2.42,9.81,1.46a.84.84,0,0,0,.54-.86c-1-25.58-6-53.17-21.23-74.35a.84.84,0,0,0-1.15-.21l-3.38,1.86A.83.83,0,0,0,313.45,266Z" transform="translate(-39.98 -46.77)" fill="#9b693c"/><g clip-path="url(#clip-path-2)"><path d="M341.85,326a144.67,144.67,0,0,1-13.68,12c-.33.27-.71-.28-.37-.54a143.1,143.1,0,0,0,13.54-11.91c.3-.3.81.13.51.43Z" transform="translate(-39.98 -46.77)" fill="#b97e4d"/><path d="M340.5,319.65c-4.59,5.76-10.75,9.82-16.18,14.72-.31.28-.69-.26-.38-.55,5.38-4.85,11.5-8.89,16.06-14.61.27-.33.77.1.5.44Z" transform="translate(-39.98 -46.77)" fill="#b97e4d"/><path d="M339.51,312.34c-4.45,3.73-8.33,8-12.46,12.1-.3.3-.81-.13-.5-.43,4.16-4.11,8.09-8.45,12.58-12.22.33-.27.7.27.38.55Z" transform="translate(-39.98 -46.77)" fill="#b97e4d"/><path d="M336.64,305.75c-4.36,3.46-8.25,7.43-12.31,11.23-.3.29-.81-.14-.5-.43,4.09-3.84,8-7.85,12.43-11.34.33-.27.71.28.38.54Z" transform="translate(-39.98 -46.77)" fill="#b97e4d"/><path d="M335.75,293.38a128.19,128.19,0,0,1-12.14,13.8c-.29.3-.8-.12-.5-.43A131.42,131.42,0,0,0,335.25,293c.25-.35.76.08.5.43Z" transform="translate(-39.98 -46.77)" fill="#b97e4d"/><path d="M332.63,283.15a139.94,139.94,0,0,1-12,14.49c-.28.32-.79-.11-.5-.43a140.27,140.27,0,0,0,12-14.5c.24-.35.74.09.5.44Z" transform="translate(-39.98 -46.77)" fill="#b97e4d"/><path d="M328.81,276.84a121.66,121.66,0,0,1-8.77,12.6.33.33,0,0,1-.51-.43c3.33-3.91,6-8.31,8.78-12.6.23-.36.73.08.5.43Z" transform="translate(-39.98 -46.77)" fill="#b97e4d"/><path d="M326.2,270.07c-2.67,3.78-5.21,7.64-7.89,11.41-.25.35-.75-.08-.5-.43,2.67-3.77,5.21-7.63,7.88-11.41.25-.35.76.08.51.43Z" transform="translate(-39.98 -46.77)" fill="#b97e4d"/><path d="M322.12,264c-2.15,3.05-4.29,6.1-6.37,9.2-.24.36-.74-.07-.51-.43,2.08-3.1,4.23-6.16,6.38-9.21.24-.34.75.09.5.44Z" transform="translate(-39.98 -46.77)" fill="#b97e4d"/><path d="M343.87,337.72c-7.08-3-13.37-7.44-20-11.23-.37-.21-.09-.81.28-.6,6.67,3.79,13,8.22,20,11.23.4.17.11.77-.28.6Z" transform="translate(-39.98 -46.77)" fill="#b97e4d"/><path d="M346.2,330.94c-7.75-4.39-14.89-9.69-22.18-14.79-.35-.25.09-.75.43-.51,7.25,5.06,14.34,10.34,22,14.7.37.21.08.81-.29.6Z" transform="translate(-39.98 -46.77)" fill="#b97e4d"/><path d="M345.27,321.56c-8.47-2.23-15.15-7.72-22.4-12.34-.36-.22-.08-.83.28-.6,7.19,4.59,13.84,10.07,22.24,12.29.41.11.29.76-.12.65Z" transform="translate(-39.98 -46.77)" fill="#b97e4d"/><path d="M342.8,313.46c-7.5-3.89-14.74-8.25-22.06-12.49-.36-.21-.08-.81.29-.6,7.31,4.24,14.55,8.6,22.06,12.5a.33.33,0,0,1-.29.59Z" transform="translate(-39.98 -46.77)" fill="#b97e4d"/><path d="M341.79,306.54c-8.07-5-16.15-10.06-24.32-14.93-.37-.21-.08-.82.28-.6,8.18,4.87,16.26,9.89,24.33,14.92.36.23.08.83-.29.61Z" transform="translate(-39.98 -46.77)" fill="#b97e4d"/><path d="M338.85,296.56c-6.5-3.23-12.92-6.63-19.36-10-.38-.2-.09-.8.29-.61,6.44,3.36,12.86,6.76,19.36,10a.33.33,0,0,1-.29.6Z" transform="translate(-39.98 -46.77)" fill="#b97e4d"/><path d="M336.12,288c-6.3-3.48-13.05-6-19.52-9.11a.33.33,0,0,1,.29-.6c6.46,3.13,13.21,5.63,19.51,9.11.37.21.09.81-.28.6Z" transform="translate(-39.98 -46.77)" fill="#b97e4d"/><path d="M332.27,278.52c-6.12-1.8-12.06-4.14-18.11-6.17-.41-.14-.11-.73.29-.6,6,2,11.87,4.33,17.94,6.12.4.12.29.78-.12.65Z" transform="translate(-39.98 -46.77)" fill="#b97e4d"/><path d="M330.19,272.53c-6.61-.62-12.87-2.71-19.2-4.56-.41-.12-.3-.77.11-.65,6.34,1.84,12.6,3.94,19.21,4.56.42,0,.3.69-.12.65Z" transform="translate(-39.98 -46.77)" fill="#b97e4d"/></g><path d="M305.8,265.55a5.19,5.19,0,0,0,3.86,5.54c2.31.41,5.64-1.46,6-3.77s-2.06-5.22-4.37-5.63A5.18,5.18,0,0,0,305.8,265.55Z" transform="translate(-39.98 -46.77)" fill="#6b4c34"/><path d="M319.44,268.83a5.19,5.19,0,0,0,3.86,5.54c2.31.41,5.64-1.45,6.05-3.77s-2.06-5.22-4.37-5.63A5.19,5.19,0,0,0,319.44,268.83Z" transform="translate(-39.98 -46.77)" fill="#6b4c34"/><path d="M287.84,252.28a11.69,11.69,0,0,0-2.67,5.66,74,74,0,0,0-13.66,1.72,12.92,12.92,0,0,1,.13-4.54,19,19,0,0,0-3.34,5.34,39.11,39.11,0,0,0-11.86,5.27c.94-10.32,5.14-19.39,13.22-23.76a15.32,15.32,0,0,1,3.17,3.7,9.68,9.68,0,0,0-1.06-4.69c4.93-2,11.11-2.42,18.66-.62a27.56,27.56,0,0,1,2.48,6.41,24.12,24.12,0,0,0,1.22-5.32c11.63,4.37,22.83,17.71,23.72,28.08-4.36-8.08-16.79-11.58-29.8-11.63A13.59,13.59,0,0,1,287.84,252.28Z" transform="translate(-39.98 -46.77)" fill="#9cb560"/><path d="M294.55,248.5a29.64,29.64,0,0,1,9.46,4.29,37,37,0,0,1,6.87,6,39.76,39.76,0,0,1,7,10.71,54,54,0,0,0-7.66-10c-3.8-3.87-9.17-8-16-9.7a32.58,32.58,0,0,0-18.6,1.15,71.82,71.82,0,0,0-11.48,5.32A48.55,48.55,0,0,1,275.29,250,31.47,31.47,0,0,1,294.55,248.5Z" transform="translate(-39.98 -46.77)" fill="#8a9c4e"/><path d="M288.9,237.72A11.28,11.28,0,0,0,284,242a105.9,105.9,0,0,0-16.06-3.61,10.85,10.85,0,0,1,1.68-4.23,19.53,19.53,0,0,0-5.59,3.76,52.26,52.26,0,0,0-15.23.41c4.56-9.35,12.39-16.29,23-17.3a15.69,15.69,0,0,1,2.34,4.7,8.31,8.31,0,0,0,.39-4.82c6.26,0,13.4,2,21.35,6.56a23.76,23.76,0,0,1,.63,7,21.15,21.15,0,0,0,3.2-4.55c11.7,8.58,19.86,25.43,17.37,35.53-2.2-9.28-15.11-17.33-29.83-22.37A11.39,11.39,0,0,1,288.9,237.72Z" transform="translate(-39.98 -46.77)" fill="#9cb560"/><path d="M297.78,236.73a37.9,37.9,0,0,1,9.27,7.67,42,42,0,0,1,5.75,8.31,38.69,38.69,0,0,1,4.27,12.75,54.72,54.72,0,0,0-5.28-12.4A42.33,42.33,0,0,0,297,237.81a46.4,46.4,0,0,0-21.46-6.05,97.16,97.16,0,0,0-14.82.62,63.15,63.15,0,0,1,14.76-1.59A44.86,44.86,0,0,1,297.78,236.73Z" transform="translate(-39.98 -46.77)" fill="#8a9c4e"/><path d="M286.1,276.47a9,9,0,0,0,.74,5.33,92.27,92.27,0,0,0-9.79,9.66,8.52,8.52,0,0,1-2.16-3A16.13,16.13,0,0,0,275,294a44.65,44.65,0,0,0-6.62,10.83c-4.4-7.27-5.65-15.77-1.53-23.66a13,13,0,0,1,4.32.41,6.6,6.6,0,0,0-3.16-2.37c2.84-4.38,7.45-8.52,14.22-12.08a19.24,19.24,0,0,1,5.13,2.6,17,17,0,0,0-1.7-4.22c11.24-4.45,26.6-2.81,32.46,3.34-7.42-2.51-18.85,3-29,11.12A9.1,9.1,0,0,1,286.1,276.47Z" transform="translate(-39.98 -46.77)" fill="#9cb560"/><path d="M289.44,269.82a32,32,0,0,1,9.51-3.14,34.25,34.25,0,0,1,8.36-.4,31.52,31.52,0,0,1,10.76,2.57,44.56,44.56,0,0,0-11-1.71,35.54,35.54,0,0,0-17.26,3.72,39.5,39.5,0,0,0-13.92,12.38,82,82,0,0,0-6.3,10.64,53.08,53.08,0,0,1,5.6-11A38.15,38.15,0,0,1,289.44,269.82Z" transform="translate(-39.98 -46.77)" fill="#8a9c4e"/><path d="M349.31,270.49a9.18,9.18,0,0,1,.4,5.37,90,90,0,0,1,11.6,7.39,8.64,8.64,0,0,0,1.48-3.41,16.18,16.18,0,0,1,1.11,5.45,44.6,44.6,0,0,1,8.76,9.19c2.76-8,2.2-16.61-3.5-23.45a12.72,12.72,0,0,0-4.13,1.31,6.74,6.74,0,0,1,2.59-3c-3.7-3.68-9.07-6.76-16.45-8.82a19.4,19.4,0,0,0-4.46,3.63,17.14,17.14,0,0,1,.78-4.48c-11.93-2-26.6,2.84-31,10.1,6.72-4,19.06-1,30.69,4.76A9.08,9.08,0,0,0,349.31,270.49Z" transform="translate(-39.98 -46.77)" fill="#9cb560"/><path d="M344.65,264.69a32.34,32.34,0,0,0-10-1.07,35,35,0,0,0-8.25,1.37,31.14,31.14,0,0,0-10,4.79,44.35,44.35,0,0,1,10.37-4,35.45,35.45,0,0,1,17.66,0A39.52,39.52,0,0,1,360.7,275a81.92,81.92,0,0,1,8.4,9.07,53.36,53.36,0,0,0-7.79-9.59A38.32,38.32,0,0,0,344.65,264.69Z" transform="translate(-39.98 -46.77)" fill="#8a9c4e"/><path d="M347.31,254.49a11.88,11.88,0,0,1,2.3,5.82,74.42,74.42,0,0,1,13.51,2.6,12.92,12.92,0,0,0,.17-4.54,19.27,19.27,0,0,1,3,5.55,39.07,39.07,0,0,1,11.49,6c-.27-10.36-3.87-19.68-11.65-24.56a15.12,15.12,0,0,0-3.41,3.49,9.79,9.79,0,0,1,1.36-4.61c-4.79-2.32-10.93-3.13-18.58-1.83a27.62,27.62,0,0,0-2.88,6.24,23.73,23.73,0,0,1-.88-5.39c-11.89,3.61-23.92,16.21-25.48,26.49,4.87-7.78,17.5-10.47,30.48-9.68A13.62,13.62,0,0,0,347.31,254.49Z" transform="translate(-39.98 -46.77)" fill="#9cb560"/><path d="M340.86,250.29a29.27,29.27,0,0,0-9.73,3.68,36.87,36.87,0,0,0-7.24,5.57,39.77,39.77,0,0,0-7.64,10.23,54.18,54.18,0,0,1,8.29-9.53c4-3.62,9.66-7.39,16.56-8.65a32.63,32.63,0,0,1,18.49,2.34A70.86,70.86,0,0,1,370.7,260,47.87,47.87,0,0,0,360,253.06,31.53,31.53,0,0,0,340.86,250.29Z" transform="translate(-39.98 -46.77)" fill="#8a9c4e"/><path d="M331.46,237.9a9,9,0,0,1,5.12,1.39,92.37,92.37,0,0,1,10.9-8.38,8.35,8.35,0,0,0-2.64-2.5,16.06,16.06,0,0,1,5.43.76A45.53,45.53,0,0,1,361.86,224c-6.49-5.21-14.64-7.49-23-4.43a12.82,12.82,0,0,0-.23,4.28,6.36,6.36,0,0,1-1.86-3.39c-4.71,2.24-9.44,6.24-13.92,12.43a18.6,18.6,0,0,0,1.8,5.34,16.49,16.49,0,0,1-3.88-2.18c-6,10.46-6.65,25.71-1.47,32.21-1.38-7.58,5.71-18.09,15.13-27A8.8,8.8,0,0,0,331.46,237.9Z" transform="translate(-39.98 -46.77)" fill="#9cb560"/><path d="M324.45,240.36a32.43,32.43,0,0,0-4.46,8.93,35.07,35.07,0,0,0-1.62,8.13,30.7,30.7,0,0,0,1,10.86,43.42,43.42,0,0,1-.08-11,35.91,35.91,0,0,1,6.17-16.46,40.15,40.15,0,0,1,14.17-12.09,81.7,81.7,0,0,1,11.34-4.85A54.14,54.14,0,0,0,339.32,228,39.21,39.21,0,0,0,324.45,240.36Z" transform="translate(-39.98 -46.77)" fill="#8a9c4e"/><path d="M311.54,269.57a5.2,5.2,0,0,0,3.86,5.54c2.32.41,5.65-1.45,6.06-3.77s-2.06-5.22-4.38-5.63A5.2,5.2,0,0,0,311.54,269.57Z" transform="translate(-39.98 -46.77)" fill="#86593d"/><path d="M301.73,368.81c-7.67-2.32-11-4.64-12.48-5.85-.73-.64-1.08-1-1.24-1.15l-.15-.18a6.74,6.74,0,0,1-2.1-5.26,7.72,7.72,0,0,1,.21-1.49c0-.34.06-.52,0-.54s-.15.12-.3.44a4.84,4.84,0,0,0-.5,1.52l-.12.56v.65a4.43,4.43,0,0,0,0,.72l.15.78a8,8,0,0,0,1.8,3.34l.17.2a17.41,17.41,0,0,0,1.34,1.25c1.6,1.3,5.09,3.7,12.86,6.05,3.87,1.16,6.84,1.8,9.07,2.27s3.71.71,4.71.89l2,.33c5.49.71,8.26.74,8.28.56s-2.7-.63-8.11-1.63l-2-.33c-1-.18-2.47-.43-4.68-.89S305.56,370,301.73,368.81Z" transform="translate(-39.98 -46.77)" fill="#effff8"/><path d="M362.44,371.6A99.49,99.49,0,0,1,345.35,374l-2.47.11c-6.75.3-10.14-.06-10.17.19a8.24,8.24,0,0,0,2.52.5,64.19,64.19,0,0,0,7.69.4l2.49-.12a100.35,100.35,0,0,0,17.27-2.38c9.72-2.31,14.23-4.7,16.45-5.81l2.21-1.2a30.66,30.66,0,0,0,6-4.89c1.11-1.33,1.61-2,1.53-2.08-.24-.23-2.25,2.66-8.08,6l-2.15,1.17C376.46,367,372,369.32,362.44,371.6Z" transform="translate(-39.98 -46.77)" fill="#effff8"/><path d="M372.37,374.71a27.61,27.61,0,0,1-6.08,1.72,5.46,5.46,0,0,1-.89.13c-2.42.42-3.68.37-3.71.6s1.24.61,3.84.48a6.33,6.33,0,0,0,.94-.14,28.65,28.65,0,0,0,6.29-1.78,45.93,45.93,0,0,0,5.88-2.81l.8-.47c2.12-1.44,3-2.38,2.9-2.52s-1.23.43-3.45,1.59l-.79.45A44.22,44.22,0,0,1,372.37,374.71Z" transform="translate(-39.98 -46.77)" fill="#effff8"/><path d="M308.61,377.86c-1.34-.22-2.33-.42-3.06-.6s-1.22-.29-1.55-.38l-.64-.18c-1.8-.39-2.73-.58-2.81-.38s.73.72,2.5,1.42l.67.19c.33.09.83.24,1.59.4s1.77.38,3.12.6c2.71.42,4.07.56,4.75.65l.67.08c3.74.15,3.81-.34.13-1.08l-.67-.08C312.63,378.41,311.28,378.28,308.61,377.86Z" transform="translate(-39.98 -46.77)" fill="#effff8"/><path d="M387.16,351.55l-1-1c-.91-.51-1.25-.15-.78.75l1,1,.88,1.07c.83.56,1.27.34.87-.65Z" transform="translate(-39.98 -46.77)" fill="#effff8"/><path d="M103.15,344.3c-.46-.07-.91-.16-1.35-.21l-1.29-.07a9.33,9.33,0,0,0-2.35.37,17.7,17.7,0,0,0-3.42,1.43c-.9.48-1.65.83-2.28,1.12a10.83,10.83,0,0,1-1.56.52l-1,.18-.5,0h-.21a19,19,0,0,1-5.33-1c-1.2-.34-1.83-.44-1.86-.35s.52.38,1.66.9c.58.25,1.3.55,2.21.86a11.64,11.64,0,0,0,3.33.64h.25l.58,0,1.09-.21a11.75,11.75,0,0,0,1.72-.57c.67-.3,1.46-.68,2.36-1.15,1.81-.89,4.19-2.26,7.7-1.43,1.24.26,2.47.63,3.74,1a18.12,18.12,0,0,0,4,.58h0c2.28.17,4.54.1,6.77.14,4.93-.08,7.33.68,7.4.41,0-.1-.56-.33-1.77-.7a25.91,25.91,0,0,0-5.61-.8c-2.27,0-4.5,0-6.71-.13h0a16.5,16.5,0,0,1-3.71-.56C105.72,344.94,104.46,344.57,103.15,344.3Z" transform="translate(-39.98 -46.77)" fill="#effff8"/><path d="M235.17,297.25a15.73,15.73,0,0,0-5.12.39c-1.43.33-2.63.69-3.64,1a33.73,33.73,0,0,1-4.26,1.13,9.84,9.84,0,0,1-1.56.15h-.23a11.8,11.8,0,0,1-1.71-.07,12.75,12.75,0,0,1-1.45-.37c-.42-.18-.84-.29-1.18-.48l-.94-.5c-1.06-.68-1.61-1.05-1.68-1s.35.57,1.36,1.44l.91.64a9.33,9.33,0,0,0,1.23.65,12,12,0,0,0,1.57.53,11.18,11.18,0,0,0,1.9.2h.25a11.35,11.35,0,0,0,1.71-.17,36.16,36.16,0,0,0,4.4-1.16c1-.31,2.18-.66,3.56-1a14.9,14.9,0,0,1,4.75-.38,19.6,19.6,0,0,1,4.57,1.51,21.32,21.32,0,0,0,3.61,1.27,11.69,11.69,0,0,0,2.8.31,13.16,13.16,0,0,0,1.86-.24c1-.2,1.41-.35,1.64-.41l.23-.06a28.85,28.85,0,0,1,3.2-.94,8.68,8.68,0,0,1,2.32-.18c1.24.08,1.87.29,1.91.17s-.52-.47-1.84-.75a8.07,8.07,0,0,0-2.51-.07,22.44,22.44,0,0,0-3.38.72l-.22.07c-.23,0-.67.2-1.56.38a9.09,9.09,0,0,1-4.21-.06,21.12,21.12,0,0,1-3.43-1.21A19.52,19.52,0,0,0,235.17,297.25Z" transform="translate(-39.98 -46.77)" fill="#effff8"/><path d="M189.39,337.86a19.36,19.36,0,0,1-7.86.45,38.9,38.9,0,0,0-4.2-.29l-1.8,0-1.72.29c-.52.11-1,.27-1.44.39-.88.26-1.57.53-2.14.73-1.13.37-1.69.61-1.67.71s.62.05,1.82-.15c.59-.11,1.33-.3,2.2-.47.44-.07.9-.19,1.41-.26l1.63-.16,1.7,0a35.22,35.22,0,0,1,4.1.28,20.57,20.57,0,0,0,8.2-.47,19.84,19.84,0,0,1,4.46-.62,33.58,33.58,0,0,1,3.4.29c1.94.21,3.24.43,4.11.54l1.74.23,3.16.24c.91,0,1.67,0,2.28,0,1.21,0,1.81-.11,1.81-.2s-.6-.23-1.79-.38l-2.22-.25-3.1-.48-1.73-.23c-.88-.11-2.16-.32-4.14-.54a33,33,0,0,0-3.52-.3A21.05,21.05,0,0,0,189.39,337.86Z" transform="translate(-39.98 -46.77)" fill="#effff8"/><path d="M244.56,368.37a21.55,21.55,0,0,0-4.46.19c-1.27.18-2.35.39-3.26.57-1.83.35-3,.56-3.84.65s-1.2.1-1.4.12l-.2,0a15,15,0,0,1-4.92-.36c-1.08-.27-1.63-.43-1.68-.33s.43.42,1.5.89a12.75,12.75,0,0,0,5.15.88h.21c.21,0,.64,0,1.47-.14s2.09-.3,3.91-.66a28.73,28.73,0,0,1,7.46-.73,17.74,17.74,0,0,1,4.17.73c1.2.35,2.26.67,3.18.89a14.32,14.32,0,0,0,4,.42c.85-.06,1.28-.08,1.48-.11l.21,0c2.28-.36,3.9-.72,5-.77s1.68,0,1.7-.16-.53-.31-1.7-.42a31.39,31.39,0,0,0-5.13.27,9.62,9.62,0,0,1-1.61.13,13,13,0,0,1-3.74-.38c-.89-.22-1.91-.53-3.14-.89A19.79,19.79,0,0,0,244.56,368.37Z" transform="translate(-39.98 -46.77)" fill="#effff8"/><path d="M268.45,331.45a59.92,59.92,0,0,1-7.74.78,8.83,8.83,0,0,1-1.1,0c-3,0-4.53-.28-4.58,0s1.4.86,4.55,1.12a6.45,6.45,0,0,0,1.15,0,60.87,60.87,0,0,0,7.86-.79,45.27,45.27,0,0,1,7.74-.54l1.1.07c3,.08,4.53.38,4.59.14s-1.4-.83-4.52-1.23l-1.14-.07A47.47,47.47,0,0,0,268.45,331.45Z" transform="translate(-39.98 -46.77)" fill="#effff8"/><path d="M419.1,332a20.11,20.11,0,0,1-7,.68,6.71,6.71,0,0,1-.86-.13l-.12,0a11.87,11.87,0,0,1-1.77-.34,10.26,10.26,0,0,1-1.26-.35c-.67-.2-1-.26-1.09-.17s.24.32.86.7a6,6,0,0,0,1.22.62,9.9,9.9,0,0,0,1.84.61l.13,0a9.27,9.27,0,0,0,.94.14,21,21,0,0,0,7.37-.7,29.78,29.78,0,0,1,7.06-1l1,.05a18.13,18.13,0,0,1,1.81.11c.53,0,.95.12,1.3.16.7.1,1.08.1,1.11,0s-.28-.29-1-.57a6.92,6.92,0,0,0-1.29-.43,10.78,10.78,0,0,0-1.89-.36L426.4,331A31.08,31.08,0,0,0,419.1,332Z" transform="translate(-39.98 -46.77)" fill="#effff8"/><path d="M343.19,413.89a30.43,30.43,0,0,0-7.56,1.25l-2.23.54-1.49.24a7.92,7.92,0,0,1-1.37.09h-.2a15.22,15.22,0,0,1-2.84-.07,12.69,12.69,0,0,1-2-.31c-1.09-.19-1.66-.25-1.69-.15s.48.33,1.54.71a10.62,10.62,0,0,0,2.06.59,13.49,13.49,0,0,0,3,.32h.21a8.88,8.88,0,0,0,1.47-.11l1.58-.25,2.27-.55a30.7,30.7,0,0,1,7.25-1.22,10.2,10.2,0,0,1,3.94,1.06,15.15,15.15,0,0,0,3.17,1,36.23,36.23,0,0,0,3.87.67l1.64.15a42.09,42.09,0,0,0,5.06-.12c1.12-.09,1.68-.19,1.68-.29s-.56-.2-1.68-.29-2.79-.17-5-.38l-1.6-.15a36.24,36.24,0,0,1-3.76-.65,14.1,14.1,0,0,1-3-.94A11.38,11.38,0,0,0,343.19,413.89Z" transform="translate(-39.98 -46.77)" fill="#effff8"/><path d="M392.64,398.94a49.8,49.8,0,0,0-5.6,1.12c-1.34.32-2.22.47-2.81.57l-1.19.15a29.52,29.52,0,0,1-3.69.32c-.84,0-1.27.11-1.28.21s.4.22,1.24.37a16.05,16.05,0,0,0,3.85.18l1.24-.16c.61-.1,1.54-.26,2.89-.59a50.4,50.4,0,0,1,5.5-1.09,18.27,18.27,0,0,1,5.5,0c1.34.18,2.24.35,2.84.45l1.2.22c3.35.47,5.09.34,5.09.16s-1.63-.47-4.89-1.23l-1.21-.22c-.6-.1-1.51-.27-2.9-.46A19.79,19.79,0,0,0,392.64,398.94Z" transform="translate(-39.98 -46.77)" fill="#effff8"/><path d="M181.47,383.93c-4.9.83-7.34.76-8.54.61a6.08,6.08,0,0,1-1.05-.13l-.14,0-1.16-.16c-.36-.06-.68-.16-1-.23l-.85-.19-.66-.22c-.8-.27-1.24-.36-1.28-.27s.29.35,1.05.8c.19.11.4.24.64.36l.84.33c.31.11.65.26,1,.37l1.21.28.16,0a6.71,6.71,0,0,0,1.11.13,31.85,31.85,0,0,0,8.82-.62,57.41,57.41,0,0,1,8.57-1.09c.61,0,.92,0,1.07,0h.15c3.34-.07,5,.4,5.07.14s-1.54-1-5-1.23h-.16a8.08,8.08,0,0,0-1.11,0A58.8,58.8,0,0,0,181.47,383.93Z" transform="translate(-39.98 -46.77)" fill="#effff8"/><path d="M262.29,423.22c-.07-7.81-14.84-9.7-26.84-7.45s-7.34,16.26,9,15.92S262.32,427.36,262.29,423.22Z" transform="translate(-39.98 -46.77)" fill="#daf1e8"/><path d="M453.11,372.7c0-7.81-9.94-9.7-18-7.45s-4.91,16.26,6,15.92S453.14,376.84,453.11,372.7Z" transform="translate(-39.98 -46.77)" fill="#daf1e8"/><path d="M154.75,297c-.07-7.81-16.65-9.7-30.12-7.45s-8.23,16.26,10.1,15.92S154.79,301.13,154.75,297Z" transform="translate(-39.98 -46.77)" fill="#daf1e8"/></svg>